<?xml version="1.0" encoding="iso-8859-1"?>
<!-- Generator: Adobe Illustrator 22.1.0, SVG Export Plug-In . SVG Version: 6.00 Build 0)  -->
<svg version="1.1" xmlns="http://www.w3.org/2000/svg" xmlns:xlink="http://www.w3.org/1999/xlink" x="0px" y="0px"
	 viewBox="0 0 50 50" style="enable-background:new 0 0 50 50;" xml:space="preserve">
<g id="Layer_1">
	<path d="M43,39h6V4H8v6H1v36h42V39z M10,6h37v31h-4V10H10V6z M8,12h33v7.586l-4-4l-17,17l-10-10l-7,7V12H8z M41,44H3V32.414l7-7
		l10,10l17-17l4,4V39V44z"/>
	<path d="M20,25c2.757,0,5-2.243,5-5s-2.243-5-5-5s-5,2.243-5,5S17.243,25,20,25z M20,17c1.654,0,3,1.346,3,3s-1.346,3-3,3
		s-3-1.346-3-3S18.346,17,20,17z"/>
</g>
<g>
</g>
</svg>
