<?xml version="1.0" encoding="iso-8859-1"?>
<!-- Generator: Adobe Illustrator 22.1.0, SVG Export Plug-In . SVG Version: 6.00 Build 0)  -->
<svg version="1.1" xmlns="http://www.w3.org/2000/svg" xmlns:xlink="http://www.w3.org/1999/xlink" x="0px" y="0px"
	 viewBox="0 0 50 50" style="enable-background:new 0 0 50 50;" xml:space="preserve">
<g id="Layer_1">
	<path d="M25,1C11.767,1,1,11.767,1,25s10.767,24,24,24s24-10.767,24-24S38.233,1,25,1z M25,47C12.869,47,3,37.131,3,25
		S12.869,3,25,3s22,9.869,22,22S37.131,47,25,47z"/>
	<path d="M23,13h4c2.757,0,5,2.243,5,5h2c0-3.86-3.141-7-7-7h-1V8h-2v3h-1c-3.859,0-7,3.14-7,7v1c0,3.86,3.141,7,7,7h4
		c2.757,0,5,2.243,5,5v1c0,2.757-2.243,5-5,5h-4c-2.757,0-5-2.243-5-5h-2c0,3.86,3.141,7,7,7h1v3h2v-3h1c3.859,0,7-3.14,7-7v-1
		c0-3.86-3.141-7-7-7h-4c-2.757,0-5-2.243-5-5v-1C18,15.243,20.243,13,23,13z"/>
</g>
<g>
</g>
</svg>
