<?xml version="1.0" encoding="UTF-8"?>
<svg xmlns="http://www.w3.org/2000/svg" xmlns:xlink="http://www.w3.org/1999/xlink" width="64pt" height="64pt" viewBox="0 0 64 64" version="1.1">
<g id="surface1">
<path style=" stroke:none;fill-rule:nonzero;fill:rgb(0%,0%,0%);fill-opacity:1;" d="M 24.332031 7.679688 C 24.996094 7.679688 25.46875 7.070312 25.316406 6.4375 C 25.183594 5.902344 24.636719 5.574219 24.101562 5.707031 C 22.953125 5.976562 23.152344 7.679688 24.332031 7.679688 Z M 24.332031 7.679688 "/>
<path style=" stroke:none;fill-rule:nonzero;fill:rgb(0%,0%,0%);fill-opacity:1;" d="M 43.414062 10.203125 C 43.414062 6.765625 37.0625 4.964844 30.789062 4.964844 C 29.667969 4.964844 28.558594 5.019531 27.488281 5.132812 C 26.941406 5.191406 26.539062 5.679688 26.597656 6.230469 C 26.65625 6.78125 27.144531 7.179688 27.695312 7.121094 C 31.089844 6.769531 35.453125 6.976562 38.667969 8.144531 C 40.695312 8.886719 41.414062 9.714844 41.414062 10.203125 C 41.414062 10.691406 40.695312 11.519531 38.667969 12.261719 C 34.351562 13.835938 27.242188 13.839844 22.910156 12.261719 C 20.882812 11.519531 20.164062 10.691406 20.164062 10.203125 C 20.164062 9.871094 20.472656 9.46875 21.039062 9.074219 C 21.488281 8.753906 21.597656 8.132812 21.28125 7.679688 C 20.964844 7.226562 20.339844 7.121094 19.886719 7.4375 C 18.464844 8.4375 18.164062 9.492188 18.164062 10.203125 C 18.164062 17.15625 43.414062 17.183594 43.414062 10.203125 Z M 43.414062 10.203125 "/>
<path style=" stroke:none;fill-rule:nonzero;fill:rgb(0%,0%,0%);fill-opacity:1;" d="M 54.371094 31.722656 C 54.039062 31.28125 53.410156 31.191406 52.96875 31.523438 C 52.527344 31.855469 52.441406 32.480469 52.769531 32.921875 C 53.429688 33.800781 53.765625 34.710938 53.765625 35.632812 C 53.765625 38.882812 49.628906 41.761719 43.820312 43.078125 C 46.859375 41.539062 49.710938 39.035156 49.710938 35.632812 C 49.710938 28.976562 49.753906 29.171875 49.585938 28.378906 C 49.472656 27.839844 48.945312 27.492188 48.402344 27.605469 C 47.863281 27.71875 47.515625 28.25 47.628906 28.789062 C 48.648438 33.65625 40.304688 37.78125 30.789062 37.78125 C 25.84375 37.78125 21.222656 36.679688 18.058594 34.917969 C 30.246094 38.464844 46.078125 34.023438 46.078125 25.945312 L 46.078125 22.332031 C 48.4375 20.605469 49.710938 18.5 49.710938 16.257812 L 49.710938 10.203125 C 49.710938 0.929688 29.3125 -3.179688 17.660156 2.804688 C 13.925781 4.722656 11.867188 7.351562 11.867188 10.203125 L 11.867188 13.816406 C 9.488281 15.5625 8.234375 17.652344 8.234375 19.890625 L 8.234375 25.945312 C 8.234375 28.1875 9.507812 30.292969 11.867188 32.019531 C 11.867188 35.691406 11.652344 36.855469 12.71875 38.726562 C 12.152344 39.714844 11.867188 40.75 11.867188 41.808594 L 11.867188 53.796875 C 11.867188 63.070312 32.265625 67.179688 43.917969 61.195312 C 47.652344 59.277344 49.710938 56.648438 49.710938 53.796875 L 49.710938 49.214844 C 52.832031 47.671875 55.765625 45.140625 55.765625 41.6875 L 55.765625 35.632812 C 55.765625 34.269531 55.296875 32.953125 54.371094 31.722656 Z M 47.710938 34.214844 L 47.710938 35.632812 C 47.710938 40.078125 39.960938 43.835938 30.789062 43.835938 C 23.472656 43.835938 17.0625 41.445312 14.765625 38.222656 C 14.742188 38.175781 14.710938 38.128906 14.675781 38.089844 C 13.738281 36.691406 13.867188 35.792969 13.867188 34.214844 C 20.6875 41.585938 40.8125 41.636719 47.710938 34.214844 Z M 47.710938 16.257812 C 47.710938 19.195312 44.234375 21.175781 44.519531 20.984375 C 41.414062 23.074219 36.367188 24.460938 30.789062 24.460938 C 21.617188 24.460938 13.867188 20.703125 13.867188 16.257812 L 13.867188 14.839844 C 20.773438 22.273438 40.839844 22.234375 47.710938 14.839844 Z M 30.789062 2 C 39.960938 2 47.710938 5.757812 47.710938 10.203125 C 47.710938 14.648438 39.960938 18.40625 30.789062 18.40625 C 21.617188 18.40625 13.867188 14.648438 13.867188 10.203125 C 13.867188 5.757812 21.617188 2 30.789062 2 Z M 11.871094 16.4375 C 12.113281 24.449219 27.867188 28.730469 39.886719 25.230469 C 36.722656 26.992188 32.101562 28.09375 27.15625 28.09375 C 15.417969 28.09375 6.375 21.988281 11.871094 16.4375 Z M 10.234375 25.945312 L 10.234375 24.527344 C 17.257812 32.085938 37.363281 31.785156 44.078125 24.527344 L 44.078125 25.945312 C 44.078125 30.390625 36.328125 34.148438 27.15625 34.148438 C 17.984375 34.148438 10.234375 30.390625 10.234375 25.945312 Z M 18.140625 43.265625 C 18.800781 45.636719 20.945312 47.78125 24.253906 49.351562 C 18.214844 48.082031 13.867188 45.140625 13.867188 41.808594 C 13.867188 41.371094 13.945312 40.9375 14.09375 40.507812 C 15.019531 41.441406 16.308594 42.386719 18.140625 43.265625 Z M 30.789062 62 C 21.617188 62 13.867188 58.242188 13.867188 53.796875 L 13.867188 52.5 C 18.191406 57.152344 27.175781 58.457031 33.578125 57.957031 C 34.128906 57.914062 34.539062 57.433594 34.496094 56.882812 C 34.453125 56.332031 33.972656 55.921875 33.421875 55.964844 C 23.296875 56.753906 13.867188 52.800781 13.867188 47.863281 C 13.867188 47.691406 13.867188 46.738281 13.867188 46.445312 C 18.28125 51.195312 27.621094 52.550781 34.539062 51.8125 C 38.675781 52.082031 43.039062 51.644531 46.859375 50.375 C 45.84375 51.851562 43.949219 53.195312 41.375 54.21875 C 40.863281 54.421875 40.613281 55.003906 40.816406 55.515625 C 41.023438 56.03125 41.605469 56.277344 42.117188 56.074219 C 44.503906 55.128906 46.40625 53.890625 47.710938 52.480469 L 47.710938 53.796875 C 47.710938 58.242188 39.960938 62 30.789062 62 Z M 53.765625 41.6875 C 53.765625 48.550781 36.246094 52.773438 25.175781 47.574219 C 23.222656 46.65625 21.761719 45.550781 20.878906 44.355469 C 24.878906 45.660156 29.476562 46.074219 33.808594 45.707031 C 40.296875 46.257812 49.40625 44.964844 53.765625 40.269531 Z M 53.765625 41.6875 "/>
<path style=" stroke:none;fill-rule:nonzero;fill:rgb(0%,0%,0%);fill-opacity:1;" d="M 37.917969 55.285156 C 37.378906 55.402344 37.039062 55.941406 37.164062 56.488281 C 37.292969 57.027344 37.835938 57.355469 38.367188 57.230469 C 38.90625 57.109375 39.242188 56.570312 39.117188 56.03125 C 38.996094 55.496094 38.457031 55.160156 37.917969 55.285156 Z M 37.917969 55.285156 "/>
</g>
</svg>
