<?xml version="1.0" encoding="iso-8859-1"?>
<!-- Generator: Adobe Illustrator 22.1.0, SVG Export Plug-In . SVG Version: 6.00 Build 0)  -->
<svg version="1.1" id="Layer_1" xmlns="http://www.w3.org/2000/svg" xmlns:xlink="http://www.w3.org/1999/xlink" x="0px" y="0px"
	 viewBox="0 0 50 50" style="enable-background:new 0 0 50 50;" xml:space="preserve">
<g id="Layer_1_1_">
	<path d="M5.316,24.486l2.683,16.095v5.918h34v-5.917l2.683-16.095c2.296,0.181,4.317-1.676,4.317-3.987c0-2.206-1.794-4-4-4
		s-4,1.794-4,4c0,0.821,0.254,1.611,0.712,2.271L33.48,28.01L26.716,11.1C28.075,10.452,29,9.068,29,7.501c0-2.206-1.794-4-4-4
		s-4,1.794-4,4c0,1.567,0.924,2.952,2.284,3.599L16.52,28.01l-8.231-5.238c0.458-0.66,0.712-1.45,0.712-2.271c0-2.206-1.794-4-4-4
		s-4,1.794-4,4C0.999,22.812,3.008,24.67,5.316,24.486z M9.999,44.499v-3h30.01l-0.01,3H9.999z M44.999,18.499c1.103,0,2,0.897,2,2
		s-0.897,2-2,2c-0.255,0-0.508-0.05-0.752-0.15l-0.202-0.082l-0.188-0.132c-0.537-0.376-0.858-0.988-0.858-1.636
		C42.999,19.396,43.896,18.499,44.999,18.499z M22.999,7.499c0-1.103,0.897-2,2-2s2,0.897,2,2c0,0.994-0.75,1.841-1.744,1.97
		l-0.256,0.033l-0.256-0.033C23.749,9.34,22.999,8.493,22.999,7.499z M17.479,30.99l7.52-18.798l7.52,18.798l10.125-6.443
		l-2.492,14.952H9.833L7.354,24.548L17.479,30.99z M4.999,18.499c1.103,0,2,0.897,2,2c0,0.648-0.321,1.26-0.858,1.636l-0.188,0.132
		l-0.202,0.082c-0.244,0.1-0.498,0.15-0.752,0.15c-1.103,0-2-0.897-2-2S3.896,18.499,4.999,18.499z"/>
	<rect x="23.999" y="34.499" width="2" height="2"/>
</g>
</svg>
